<svg width="612" height="612" viewBox="122 0 612 612" fill="none" xmlns="http://www.w3.org/2000/svg">
<path d="M314.565 100.896C311.941 103.783 309.317 106.67 306.377 109.909C303.06 106.729 300.119 103.909 296.533 100.472C296.181 112.108 296.402 122.974 296.366 133.833C296.33 144.794 296.354 155.755 296.36 166.716C296.36 177.803 296.372 188.889 296.378 199.982C296.378 210.943 296.378 221.904 296.366 232.865C296.366 243.784 296.348 254.703 296.342 265.622C296.342 276.583 296.342 287.544 296.342 298.505C296.342 309.466 296.342 320.427 296.342 331.388C296.342 342.343 296.36 353.304 296.366 364.26C296.366 375.352 296.366 386.445 296.366 397.531C296.366 408.492 296.36 419.453 296.36 430.414C296.36 441.375 296.36 452.336 296.36 463.297V497.053C293.348 494.178 290.999 492.032 288.758 489.785C277.139 478.155 265.587 466.459 253.914 454.882C252.002 452.982 251.279 451.057 251.279 448.368C251.351 383.522 251.333 318.67 251.333 253.825C251.333 205.42 251.333 157.01 251.333 108.606C251.333 88.2559 251.392 67.8997 251.267 47.5495C251.249 44.6808 252.104 42.6966 254.142 40.7362C259.981 35.1362 265.623 29.333 271.348 23.6194C272.263 22.705 273.219 21.8384 274.408 20.7088C284.885 31.2993 295.23 41.7582 305.893 52.54C316.621 41.812 327.092 31.3471 337.7 20.7446C345.141 28.1795 352.378 35.3155 359.461 42.6129C360.303 43.4795 360.572 45.1828 360.596 46.5096C360.704 53.813 360.656 61.1223 360.656 68.4257C360.656 135.883 360.656 203.341 360.656 270.798C360.656 316.985 360.656 363.172 360.65 409.365C360.65 422.668 360.62 435.978 360.686 449.282C360.698 451.236 360.226 452.713 358.791 454.135C345.093 467.744 331.46 481.418 317.798 495.069C317.35 495.517 316.836 495.887 315.724 496.82C315.67 494.728 315.593 493.252 315.593 491.775C315.587 437.233 315.581 382.697 315.587 328.155C315.587 310.805 315.628 293.455 315.617 276.105C315.587 243.898 315.491 211.69 315.479 179.482C315.473 154.691 315.551 129.901 315.593 105.11C315.593 103.849 315.593 102.582 315.593 101.321C315.252 101.177 314.911 101.034 314.571 100.89L314.565 100.896Z" fill="#003840"/>
<path d="M444.089 366.758V270.774H425.143C425.053 271.802 424.88 272.914 424.88 274.025C424.892 300.245 424.928 326.464 424.952 352.689C424.964 363.895 424.982 375.095 424.892 386.301C424.886 387.311 424.264 388.506 423.559 389.277C421.366 391.686 419.005 393.939 416.698 396.246C405.635 407.321 394.567 418.395 383.498 429.458C382.59 430.366 381.622 431.209 380.755 432.016C380.432 431.884 380.307 431.854 380.205 431.783C380.11 431.717 379.978 431.603 379.978 431.514C379.942 309.419 379.912 187.329 379.9 65.2342C379.9 64.8935 380.127 64.5469 380.367 63.8655C381.287 64.6305 382.094 65.1983 382.781 65.8856C400.848 83.9767 419.005 101.978 436.935 120.207C463.811 147.531 480.229 180.289 486.624 218.013C490.772 242.487 489.732 266.848 483.928 291.005C477.456 317.947 465.473 342.146 448.009 363.644C447.041 364.839 445.965 365.951 444.943 367.104L444.095 366.77L444.089 366.758ZM442.254 225.251C439.451 208.576 434.03 193.264 425.113 179.231V225.251H442.254Z" fill="#003840"/>
<path d="M167.738 225.113C168.796 225.316 169.418 225.544 170.039 225.544C175.508 225.573 180.982 225.561 186.738 225.561C186.869 224.354 187.073 223.368 187.073 222.382C187.067 203.855 187.019 185.333 187.019 166.806C187.019 157.686 187.126 148.565 187.138 139.445C187.15 129.93 187.15 120.416 187.055 110.901C187.037 108.959 187.479 107.477 188.919 106.048C202.528 92.5411 216.065 78.9564 229.638 65.4075C230.164 64.8816 230.791 64.4513 231.855 63.5847V432.273C230.773 431.466 230.032 431.048 229.452 430.468C215.975 417.015 202.54 403.514 189.009 390.114C187.437 388.56 187.061 386.941 187.067 384.891C187.114 371.975 187.079 359.06 187.079 346.145C187.079 322.663 187.079 299.181 187.079 275.705C187.079 274.163 187.079 272.621 187.079 270.822H167.834V366.871C160.567 363.058 142.057 332.482 134.347 311.899C126.632 291.292 122.872 269.949 122.86 247.962C122.848 226.105 126.673 204.912 134.234 184.407C141.788 163.907 152.779 145.446 167.32 128.885C167.78 135.178 167.697 141.435 167.714 147.693C167.732 154.219 167.714 160.74 167.714 167.266C167.714 173.655 167.738 180.038 167.744 186.427C167.744 192.947 167.732 199.474 167.726 205.994C167.726 212.359 167.726 218.724 167.726 225.125L167.738 225.113Z" fill="#003840"/>
<path d="M437.081 586.677C437.859 590.101 438.909 592.805 440.232 594.789C441.555 596.774 443.267 598.252 445.368 599.225C447.47 600.159 450.174 600.626 453.481 600.626C458.034 600.626 461.516 599.439 463.928 597.066C466.38 594.692 467.605 591.229 467.605 586.677C467.605 583.758 467.1 581.307 466.088 579.323C465.076 577.338 463.423 575.471 461.127 573.72C458.831 571.969 455.329 569.926 450.621 567.591C446.069 565.335 442.47 563.136 439.824 560.996C437.178 558.817 435.193 556.463 433.871 553.934C432.587 551.405 431.945 548.642 431.945 545.646C431.945 541.288 432.956 537.514 434.979 534.323C437.042 531.094 440.038 528.604 443.968 526.853C447.936 525.102 452.469 524.226 457.567 524.226C460.524 524.226 463.403 524.382 466.205 524.693C469.045 525.004 472.586 525.705 476.827 526.794V542.553H471.049C470.154 539.129 469.026 536.463 467.664 534.557C466.302 532.65 464.707 531.327 462.878 530.588C461.049 529.81 458.676 529.421 455.757 529.421C453.228 529.421 450.952 529.888 448.929 530.821C446.944 531.755 445.368 533.176 444.201 535.082C443.034 536.95 442.45 539.187 442.45 541.794C442.45 544.557 442.937 546.891 443.909 548.798C444.921 550.704 446.477 552.475 448.579 554.109C450.68 555.743 453.792 557.572 457.917 559.595C462.897 562.086 466.749 564.401 469.473 566.541C472.236 568.681 474.376 571.132 475.893 573.895C477.45 576.618 478.228 579.809 478.228 583.467C478.228 587.552 477.586 591.015 476.302 593.856C475.018 596.657 473.228 598.953 470.932 600.743C468.675 602.494 465.952 603.778 462.761 604.595C459.609 605.373 456.146 605.762 452.372 605.762C446.263 605.762 439.221 604.731 431.244 602.669V586.677H437.081Z" fill="#003840"/>
<path d="M377.082 570.218V590.062C377.082 592.863 377.179 594.906 377.373 596.19C377.607 597.435 377.938 598.389 378.366 599.05C378.794 599.673 379.377 600.198 380.117 600.626C380.856 601.015 382.12 601.462 383.91 601.968V604.828H359.28V601.968C361.693 601.346 363.307 600.665 364.125 599.925C364.942 599.147 365.467 598.058 365.7 596.657C365.973 595.256 366.109 593.116 366.109 590.237V539.751C366.109 537.067 366.012 535.121 365.817 533.915C365.623 532.67 365.292 531.716 364.825 531.055C364.397 530.355 363.813 529.81 363.074 529.421C362.335 528.993 361.07 528.526 359.28 528.02V525.16H388.171C397.276 525.16 404.085 526.814 408.599 530.121C413.112 533.428 415.369 538.565 415.369 545.529C415.369 550.86 413.89 555.393 410.933 559.128C408.015 562.864 403.618 565.782 397.743 567.883V568.35C400.116 569.323 402.14 570.724 403.813 572.552C405.525 574.342 407.412 577.144 409.474 580.957L414.727 590.529C416.244 593.33 417.548 595.47 418.637 596.949C419.727 598.427 420.836 599.556 421.964 600.334C423.093 601.112 424.591 601.657 426.458 601.968V604.828H410.291C408.813 602.766 407.412 600.548 406.089 598.175C404.766 595.801 403.462 593.389 402.178 590.937L397.042 581.19C395.486 578.233 394.202 576.054 393.19 574.654C392.218 573.253 391.303 572.28 390.447 571.735C389.63 571.152 388.735 570.763 387.762 570.568C386.828 570.335 385.408 570.218 383.502 570.218H377.082ZM377.082 530.53V565.198H383.677C387.062 565.198 389.805 564.965 391.906 564.498C394.007 563.992 395.953 563.058 397.743 561.697C399.533 560.335 400.953 558.448 402.003 556.035C403.093 553.584 403.638 550.588 403.638 547.047C403.638 543.35 402.996 540.277 401.712 537.825C400.466 535.374 398.56 533.506 395.992 532.222C393.424 530.938 389.961 530.296 385.603 530.296C382.101 530.296 379.261 530.374 377.082 530.53Z" fill="#003840"/>
<path d="M340.37 577.28C340.37 581.521 339.981 585.179 339.203 588.253C338.463 591.171 337.355 593.758 335.876 596.015C334.514 598.038 332.822 599.77 330.798 601.21C328.775 602.61 326.324 603.719 323.444 604.536C320.565 605.353 317.18 605.762 313.289 605.762C308.581 605.762 304.534 605.237 301.149 604.186C297.803 603.136 295.021 601.424 292.803 599.05C290.624 596.638 289.048 593.817 288.075 590.587C287.102 587.319 286.616 583.175 286.616 578.155V539.751C286.616 536.716 286.519 534.674 286.324 533.623C286.13 532.534 285.838 531.678 285.449 531.055C285.099 530.432 284.573 529.907 283.873 529.479C283.172 529.012 281.869 528.526 279.962 528.02V525.16H304.476V528.02C302.297 528.565 300.779 529.187 299.923 529.888C299.067 530.549 298.484 531.561 298.172 532.923C297.861 534.284 297.705 536.561 297.705 539.751V581.074C297.705 584.848 298.094 588.019 298.873 590.587C299.69 593.155 300.818 595.159 302.258 596.599C303.697 597.999 305.409 599.031 307.394 599.692C309.378 600.315 311.849 600.626 314.806 600.626C317.53 600.626 319.923 600.159 321.985 599.225C324.047 598.252 325.759 596.793 327.121 594.848C328.522 592.902 329.475 590.509 329.981 587.669C330.487 584.828 330.74 581.015 330.74 576.229V539.751C330.74 536.366 330.565 534.051 330.215 532.806C329.903 531.561 329.359 530.607 328.58 529.946C327.841 529.285 326.285 528.643 323.911 528.02V525.16H347.199V528.02C344.942 528.604 343.386 529.246 342.53 529.946C341.712 530.646 341.148 531.658 340.837 532.981C340.526 534.304 340.37 536.561 340.37 539.751V577.28Z" fill="#003840"/>
<path d="M234.788 605.762C230.119 605.762 225.858 605.003 222.006 603.486C218.193 601.929 214.905 599.536 212.142 596.307C209.418 593.038 207.298 588.875 205.78 583.817C204.302 578.758 203.562 572.708 203.562 565.665C203.562 556.988 204.885 549.537 207.531 543.312C210.177 537.086 213.951 532.358 218.854 529.129C223.796 525.86 229.515 524.226 236.013 524.226C242.939 524.226 248.756 525.763 253.464 528.837C258.211 531.872 261.772 536.366 264.145 542.319C266.558 548.234 267.764 555.451 267.764 563.973C267.764 573.078 266.402 580.762 263.678 587.027C260.955 593.291 257.103 597.98 252.122 601.093C247.181 604.206 241.402 605.762 234.788 605.762ZM215.586 564.031C215.586 575.976 217.317 585.062 220.78 591.287C224.282 597.513 229.379 600.626 236.072 600.626C240.313 600.626 243.912 599.283 246.869 596.599C249.826 593.875 252.044 589.906 253.523 584.692C255.001 579.478 255.741 573.389 255.741 566.424C255.741 557.942 254.865 550.918 253.114 545.354C251.402 539.751 249.048 535.685 246.052 533.156C243.056 530.627 239.574 529.362 235.605 529.362C232.103 529.362 229.087 530.179 226.558 531.814C224.068 533.448 221.986 535.783 220.313 538.817C218.679 541.814 217.473 545.452 216.695 549.732C215.955 554.012 215.586 558.778 215.586 564.031Z" fill="#003840"/>
<path d="M131.249 525.16H194.399V545.471H188.68C187.824 542.125 186.968 539.479 186.112 537.533C185.294 535.588 184.419 534.109 183.485 533.098C182.551 532.086 181.54 531.366 180.45 530.938C179.4 530.51 177.804 530.296 175.664 530.296H168.252V590.062C168.252 592.358 168.369 594.186 168.602 595.548C168.874 596.91 169.264 597.999 169.769 598.817C170.314 599.595 171.034 600.217 171.929 600.684C172.824 601.112 174.225 601.54 176.131 601.968V604.828H149.458V601.968C150.626 601.696 151.657 601.404 152.552 601.093C153.447 600.782 154.166 600.412 154.711 599.984C155.295 599.517 155.762 598.933 156.112 598.233C156.501 597.533 156.793 596.579 156.987 595.373C157.221 594.167 157.338 592.396 157.338 590.062V530.296H149.984C148.155 530.296 146.637 530.471 145.431 530.821C144.264 531.172 143.174 531.911 142.163 533.039C141.151 534.129 140.217 535.705 139.361 537.767C138.544 539.79 137.766 542.358 137.027 545.471H131.249V525.16Z" fill="#003840"/>
</svg>
